<?xml version="1.0" standalone="no"?>
<!DOCTYPE svg PUBLIC "-//W3C//DTD SVG 20010904//EN"
 "http://www.w3.org/TR/2001/REC-SVG-20010904/DTD/svg10.dtd">
<svg version="1.0" xmlns="http://www.w3.org/2000/svg"
 width="700.000000pt" height="700.000000pt" viewBox="0 0 700.000000 700.000000"
 preserveAspectRatio="xMidYMid meet">
<metadata>
Created by potrace 1.14, written by Peter Selinger 2001-2017
</metadata>
<g transform="translate(0.000000,700.000000) scale(0.100000,-0.100000)"
fill="#000000" stroke="none">
<path d="M3087 5005 c-1605 -255 -2920 -465 -2921 -467 -3 -3 433 -2760 437
-2764 2 -2 5880 928 5885 931 2 2 -424 2703 -433 2743 -4 15 -12 22 -28 21
-12 0 -1335 -209 -2940 -464z m1677 -470 c232 -44 374 -196 393 -420 10 -126
-31 -239 -124 -336 l-54 -57 57 -17 c90 -26 153 -62 214 -124 68 -68 106 -144
127 -254 30 -159 -12 -294 -126 -407 -102 -101 -246 -167 -453 -209 -205 -42
-1018 -165 -1027 -156 -11 13 -297 1823 -289 1830 5 5 806 136 963 158 72 10
250 6 319 -8z m-2009 -320 c193 -41 336 -169 374 -336 17 -72 13 -181 -9 -252
-22 -70 -91 -174 -135 -203 l-26 -17 78 -27 c43 -14 97 -38 121 -53 141 -90
220 -259 209 -445 -14 -245 -221 -417 -587 -491 -159 -32 -1019 -165 -1025
-159 -8 8 -297 1830 -291 1835 4 4 836 138 961 156 74 10 265 6 330 -8z"/>
<path d="M4170 4173 c-118 -19 -216 -36 -218 -38 -4 -4 64 -424 69 -430 5 -4
398 56 484 75 71 15 155 61 189 104 56 69 45 205 -22 269 -70 67 -183 72 -502
20z"/>
<path d="M4600 3474 c-14 -3 -137 -23 -274 -44 -137 -22 -251 -41 -253 -44 -4
-4 47 -350 63 -428 5 -23 9 -27 32 -22 15 2 150 24 300 49 205 33 287 50 330
70 103 47 144 103 144 195 0 99 -45 171 -127 206 -40 16 -168 27 -215 18z"/>
<path d="M2150 3853 c-118 -19 -216 -36 -216 -37 -2 -2 67 -430 69 -433 8 -8
504 80 551 98 120 44 181 139 157 243 -17 73 -45 111 -103 140 -46 23 -64 26
-147 25 -57 -1 -184 -16 -311 -36z"/>
<path d="M2580 3153 c-14 -2 -137 -22 -274 -43 -137 -22 -250 -40 -251 -42 -4
-3 63 -427 69 -444 3 -6 15 -10 28 -8 13 2 146 24 297 49 298 48 364 69 429
136 80 82 61 250 -36 313 -59 39 -167 55 -262 39z"/>
</g>
</svg>
