<?xml version="1.0" encoding="UTF-8"?>
<svg width="528px" height="298px" viewBox="0 0 528 298" version="1.1" xmlns="http://www.w3.org/2000/svg" xmlns:xlink="http://www.w3.org/1999/xlink">
    <title>Group 6</title>
    <defs>
        <polygon id="path-1" points="-1.4037362e-13 -2.44716534e-14 506.847199 -2.44716534e-14 506.847199 254 -1.4037362e-13 254"></polygon>
    </defs>
    <g id="Page-1" stroke="none" stroke-width="1" fill="none" fill-rule="evenodd">
        <g id="Medium" transform="translate(-456.000000, -64.000000)">
            <g id="Group-6" transform="translate(456.471974, 64.348801)">
                <rect id="Rectangle" fill="#FEFAB1" transform="translate(141.922354, 65.195021) rotate(-7.000000) translate(-141.922354, -65.195021) " x="31.9225569" y="25.1004175" width="219.999594" height="80.1892071"></rect>
                <rect id="Rectangle-Copy" fill="#FEFAB1" transform="translate(260.112325, 151.054150) rotate(-1.000000) translate(-260.112325, -151.054150) " x="13.1123253" y="110.959546" width="494" height="80.1892071"></rect>
                <rect id="Rectangle-Copy-2" fill="#FEFAB1" transform="translate(311.705288, 233.970706) rotate(-8.000000) translate(-311.705288, -233.970706) " x="168.205288" y="193.876103" width="287" height="80.1892071"></rect>
                <g id="Group-16" transform="translate(263.528026, 148.604049) rotate(-5.000000) translate(-263.528026, -148.604049) translate(10.104426, 21.604049)">
                    <path d="M235.57766,207.495132 C237.530246,206.224401 238.506539,204.287312 238.506539,201.683863 C238.506539,199.080415 237.530246,197.160372 235.57766,195.919085 C233.623524,194.679348 230.820168,194.059479 227.161393,194.059479 L212.191566,194.059479 L212.191566,209.401228 L227.161393,209.401228 C230.820168,209.401228 233.623524,208.765862 235.57766,207.495132" id="Fill-1" fill="#3E2262"></path>
                    <path d="M421.274801,211.88845 C419.29742,210.865667 416.93882,210.354276 414.195902,210.354276 L405.827675,210.354276 L405.827675,236.435248 L414.195902,236.435248 C416.93882,236.435248 419.29742,235.925406 421.274801,234.901073 C423.249083,233.87829 424.806503,232.390605 425.947061,230.438019 C427.08452,228.485433 427.654799,226.13768 427.654799,223.394762 C427.654799,220.651843 427.08452,218.304091 425.947061,216.351505 C424.806503,214.398918 423.249083,212.911234 421.274801,211.88845" id="Fill-3" fill="#3E2262"></path>
                    <polygon id="Fill-5" fill="#3E2262" points="172.317278 143.460689 184.223404 143.460689 178.271116 128.515656"></polygon>
                    <path d="M238.692035,222.325333 C236.646468,221.023609 233.700542,220.372747 229.858907,220.372747 L212.191101,220.372747 L212.191101,236.459888 L229.858907,236.459888 C233.700542,236.459888 236.646468,235.807476 238.692035,234.505752 C240.736051,233.204028 241.758835,231.191004 241.758835,228.462033 C241.758835,225.672624 240.736051,223.627058 238.692035,222.325333" id="Fill-7" fill="#3E2262"></path>
                    <g id="Group-11" transform="translate(-0.000000, -0.000000)">
                        <mask id="mask-2" fill="white">
                            <use xlink:href="#path-1"></use>
                        </mask>
                        <g id="Clip-10"></g>
                        <path d="M475.199807,163.265181 L437.891464,163.265181 L437.891464,114.450527 L452.187184,114.450527 L452.187184,151.968076 L475.199807,151.968076 L475.199807,163.265181 Z M438.636856,236.364738 C436.337144,240.039009 433.140171,242.862511 429.049039,244.838342 C424.957906,246.815723 420.192666,247.801314 414.753319,247.801314 L391.53149,247.801314 L391.53149,198.98666 L414.753319,198.98666 C420.192666,198.98666 424.957906,199.97535 429.049039,201.951182 C433.140171,203.927013 436.337144,206.739667 438.636856,210.389143 C440.939668,214.03862 442.089525,218.349806 442.089525,223.324252 C442.089525,228.346737 440.939668,232.693566 438.636856,236.364738 L438.636856,236.364738 Z M382.369832,141.438057 L382.369832,114.450527 L396.664003,114.450527 L396.664003,141.089381 C396.664003,145.180514 397.454335,148.096996 399.03655,149.840377 C400.615665,151.583757 402.800702,152.456222 405.59166,152.456222 C408.381069,152.456222 410.541311,151.583757 412.077036,149.840377 C413.611211,148.096996 414.378298,145.180514 414.378298,141.089381 L414.378298,114.450527 L428.534548,114.450527 L428.534548,141.438057 C428.534548,148.73701 426.487431,154.362318 422.397848,158.313981 C418.305166,162.265643 412.658163,164.241474 405.45064,164.241474 C398.199727,164.241474 392.538777,162.265643 388.470889,158.313981 C384.401452,154.362318 382.369832,148.73701 382.369832,141.438057 L382.369832,141.438057 Z M381.760811,247.801314 L369.977109,247.801314 L349.056543,222.588158 L349.056543,247.801314 L335.038214,247.801314 L335.038214,198.98666 L346.823466,198.98666 L367.744032,224.202915 L367.744032,198.98666 L381.760811,198.98666 L381.760811,247.801314 Z M313.254481,163.265181 L327.551751,163.265181 L327.551751,114.450527 L313.254481,114.450527 L313.254481,163.265181 Z M310.957868,247.801314 L325.255138,247.801314 L325.255138,198.98666 L310.957868,198.98666 L310.957868,247.801314 Z M306.304204,125.747633 L291.450602,125.747633 L291.450602,163.265181 L277.153333,163.265181 L277.153333,125.747633 L262.299731,125.747633 L262.299731,114.450527 L306.304204,114.450527 L306.304204,125.747633 Z M303.847975,247.801314 L266.539632,247.801314 L266.539632,198.98666 L280.835352,198.98666 L280.835352,236.504208 L303.847975,236.504208 L303.847975,247.801314 Z M250.314571,243.107359 C245.911954,246.237695 239.435877,247.801314 230.88169,247.801314 L197.222824,247.801314 L197.222824,182.715109 L229.022084,182.715109 C237.20435,182.715109 243.354996,184.26633 247.478672,187.364123 C251.599249,190.465016 253.661862,194.556149 253.661862,199.637522 C253.661862,203.046799 252.825039,206.006672 251.151394,208.51714 C249.648212,210.773462 247.601096,212.540087 245.070483,213.869706 C245.665556,214.071163 246.26373,214.269521 246.82781,214.514369 C249.958147,215.87963 252.420575,217.861659 254.219743,220.465108 C256.017362,223.068556 256.916172,226.262429 256.916172,230.042078 C256.916172,235.622445 254.715638,239.977022 250.314571,243.107359 L250.314571,243.107359 Z M164.428675,163.265181 L149.784278,163.265181 L171.332461,114.450527 L185.418976,114.450527 L206.965609,163.265181 L192.112007,163.265181 L188.41759,153.990397 L168.123092,153.990397 L164.428675,163.265181 Z M129.667992,59.5115716 L129.667992,78.3400809 L115.370722,78.3400809 L115.370722,29.5254271 L129.667992,29.5254271 L129.667992,47.6565842 L147.799149,47.6565842 L147.799149,29.5254271 L162.094869,29.5254271 L162.094869,78.3400809 L147.799149,78.3400809 L147.799149,59.5115716 L129.667992,59.5115716 Z M143.969911,163.265181 L104.567962,163.265181 L104.567962,114.450527 L143.063353,114.450527 L143.063353,125.538427 L118.656026,125.538427 L118.656026,133.209301 L140.202659,133.209301 L140.202659,143.809055 L118.656026,143.809055 L118.656026,152.177281 L143.969911,152.177281 L143.969911,163.265181 Z M88.3429008,158.569676 C83.940284,161.700013 77.4642066,163.265181 68.9100196,163.265181 L35.2527032,163.265181 L35.2527032,98.1789761 L67.0504137,98.1789761 C75.2326795,98.1789761 81.3833259,99.7286476 85.5070019,102.827991 C89.6275785,105.927334 91.6901914,110.020016 91.6901914,115.101389 C91.6901914,118.510667 90.8533687,121.470539 89.1797235,123.981007 C87.6765421,126.237329 85.6294259,128.003955 83.100362,129.333573 C83.6954359,129.53503 84.2920594,129.733388 84.8561398,129.978236 C87.9864764,131.341947 90.4504541,133.325527 92.2480731,135.928975 C94.0456921,138.532423 94.9445016,141.726296 94.9445016,145.505945 C94.9445016,151.084763 92.743968,155.440889 88.3429008,158.569676 L88.3429008,158.569676 Z M58.5148229,13.2538759 L115.232802,13.2538759 L115.232802,25.5272745 L94.4052159,25.5272745 L94.4052159,78.3400809 L79.3408588,78.3400809 L79.3408588,25.5272745 L58.5148229,25.5272745 L58.5148229,13.2538759 Z M171.863999,29.5254271 L210.35784,29.5254271 L210.35784,40.6133271 L185.950513,40.6133271 L185.950513,48.2842012 L207.498696,48.2842012 L207.498696,58.8839546 L185.950513,58.8839546 L185.950513,67.252181 L211.264398,67.252181 L211.264398,78.3400809 L171.863999,78.3400809 L171.863999,29.5254271 Z M226.080807,149.840377 C227.661472,151.583757 229.846509,152.456222 232.637468,152.456222 C235.425327,152.456222 237.587119,151.583757 239.121294,149.840377 C240.655468,148.096996 241.424105,145.180514 241.424105,141.089381 L241.424105,114.450527 L255.578805,114.450527 L255.578805,141.438057 C255.578805,148.73701 253.533239,154.362318 249.442106,158.313981 C245.350973,162.265643 239.70242,164.241474 232.496448,164.241474 C225.243985,164.241474 219.584584,162.265643 215.516696,158.313981 C211.447259,154.362318 209.41409,148.73701 209.41409,141.438057 L209.41409,114.450527 L223.70981,114.450527 L223.70981,141.089381 C223.70981,145.180514 224.500142,148.096996 226.080807,149.840377 L226.080807,149.840377 Z M337.333278,114.450527 L375.828669,114.450527 L375.828669,125.538427 L351.630547,125.538427 L351.630547,135.719769 L372.967975,135.719769 L372.967975,146.807669 L351.630547,146.807669 L351.630547,163.265181 L337.333278,163.265181 L337.333278,114.450527 Z M240.780992,84.6116017 L240.780992,-0.000464901464 L34.8327422,-0.000464901464 L34.8327422,84.6116017 L-0.000774835775,84.6116017 L-0.000774835775,169.305801 L161.660961,169.305801 L161.660961,254 L475.722046,254 L475.722046,169.305801 L506.847199,169.305801 L506.847199,84.6116017 L240.780992,84.6116017 Z" id="Fill-9" fill="#3E2262" mask="url(#mask-2)"></path>
                    </g>
                    <path d="M76.7208291,137.788736 C74.6752627,136.487012 71.7293371,135.83615 67.8877013,135.83615 L50.219896,135.83615 L50.219896,151.92174 L67.8877013,151.92174 C71.7293371,151.92174 74.6752627,151.270878 76.7208291,149.969154 C78.7648459,148.66743 79.7876291,146.654407 79.7876291,143.925435 C79.7876291,141.136026 78.7648459,139.09046 76.7208291,137.788736" id="Fill-12" fill="#3E2262"></path>
                    <path d="M65.1906529,124.86463 C68.8478778,124.86463 71.6527833,124.229265 73.6069191,122.958534 C75.5579556,121.687803 76.5342487,119.750714 76.5342487,117.147266 C76.5342487,114.543818 75.5579556,112.623775 73.6069191,111.382488 C71.6527833,110.14275 68.8478778,109.522882 65.1906529,109.522882 L50.2208258,109.522882 L50.2208258,124.86463 L65.1906529,124.86463 Z" id="Fill-14" fill="#3E2262"></path>
                </g>
            </g>
        </g>
    </g>
</svg>