<?xml version="1.0" encoding="UTF-8"?>
<svg width="126px" height="31px" viewBox="0 0 126 31" version="1.1" xmlns="http://www.w3.org/2000/svg" xmlns:xlink="http://www.w3.org/1999/xlink">
    <title>Apple_Music_logo</title>
    <g id="Page-1" stroke="none" stroke-width="1" fill="none" fill-rule="evenodd">
        <g id="BB" transform="translate(-833.000000, -3081.000000)" fill="#FEFAB1" fill-rule="nonzero">
            <g id="Group-2" transform="translate(481.082843, 3066.500000)">
                <g id="Apple_Music_logo" transform="translate(352.758364, 15.000000)">
                    <path d="M52.2618794,29.6984925 L52.2618794,9.34673367 L52.1111256,9.34673367 L43.9704221,29.6984925 L40.8045929,29.6984925 L32.6638894,9.34673367 L32.5131356,9.34673367 L32.5131356,29.6984925 L28.7442914,29.6984925 L28.7442914,2.11055276 L33.568412,2.11055276 L42.3121306,24.120603 L42.4628844,24.120603 L51.206603,2.11055276 L56.1814773,2.11055276 L56.1814773,29.6984925 L52.2618794,29.6984925 L52.2618794,29.6984925 Z M77.4377587,29.6984925 L73.5181608,29.6984925 L73.5181608,26.2311558 L73.367407,26.2311558 C72.3121306,28.6432161 70.2015778,30 67.1865025,30 C62.8146432,30 60.2518291,27.1356784 60.2518291,22.4623116 L60.2518291,9.49748744 L64.3221809,9.49748744 L64.3221809,21.7085427 C64.3221809,24.7236181 65.8297185,26.3819095 68.5432864,26.3819095 C71.5583618,26.3819095 73.2166532,24.2713568 73.2166532,21.1055276 L73.2166532,9.49748744 L77.287005,9.49748744 L77.4377587,29.6984925 L77.4377587,29.6984925 Z M88.5935376,9.1959799 C93.2669045,9.1959799 96.1312261,11.758794 96.2819799,15.5276382 L92.5131356,15.5276382 C92.2116281,13.5678392 90.8548442,12.361809 88.5935376,12.361809 C86.3322311,12.361809 84.8246934,13.4170854 84.8246934,15.0753769 C84.8246934,16.281407 85.729216,17.1859296 87.8397688,17.638191 L91.0055979,18.3919598 C95.0759497,19.2964824 96.5834874,20.9547739 96.5834874,23.8190955 C96.5834874,27.4371859 93.2669045,30 88.5935376,30 C83.6186633,30 80.6035879,27.5879397 80.3020804,23.6683417 L84.3724321,23.6683417 C84.6739397,25.7788945 86.1814773,26.8341709 88.5935376,26.8341709 C91.0055979,26.8341709 92.5131356,25.7788945 92.5131356,24.120603 C92.5131356,22.7638191 91.7593668,22.0100503 89.648814,21.5577889 L86.4829849,20.8040201 C82.7141407,19.8994975 80.9050954,18.0904523 80.9050954,15.0753769 C80.9050954,11.6080402 83.9201708,9.1959799 88.5935376,9.1959799 Z M99.5985628,4.22110553 C99.5985628,2.86432161 100.653839,1.80904523 102.010623,1.80904523 C103.367407,1.80904523 104.422683,2.86432161 104.422683,4.22110553 C104.422683,5.57788945 103.367407,6.63316583 102.010623,6.63316583 C100.653839,6.63316583 99.5985628,5.57788945 99.5985628,4.22110553 L99.5985628,4.22110553 Z M99.9000703,9.49748744 L103.970422,9.49748744 L103.970422,29.6984925 L99.9000703,29.6984925 L99.9000703,9.49748744 Z M121.156352,16.4321608 C120.70409,14.321608 119.196553,12.5125628 116.482985,12.5125628 C113.317156,12.5125628 111.206603,15.2261307 111.206603,19.4472362 C111.206603,23.8190955 113.317156,26.3819095 116.482985,26.3819095 C119.045799,26.3819095 120.553337,25.0251256 121.156352,22.6130653 L125.07595,22.6130653 C124.623688,26.8341709 121.307105,29.8492462 116.482985,29.8492462 C110.754342,29.8492462 107.136251,25.9296482 107.136251,19.4472362 C107.136251,13.1155779 110.754342,9.04522613 116.482985,9.04522613 C121.608613,9.04522613 124.623688,12.361809 125.07595,16.281407 L121.156352,16.4321608 L121.156352,16.4321608 Z M16.2317286,4.8241206 C15.1764522,6.03015075 13.5181608,7.08542714 11.8598693,6.93467337 C11.5583618,5.12562814 12.4628844,3.31658291 13.367407,2.26130653 C14.4226834,0.904522613 16.2317286,0 17.7392663,0 C17.8900201,1.65829146 17.287005,3.46733668 16.2317286,4.8241206 L16.2317286,4.8241206 Z M17.7392663,7.2361809 C18.6437889,7.2361809 21.3573567,7.53768844 23.166402,10.2512563 C23.0156482,10.4020101 20.0005728,12.2110553 20.0005728,15.9798995 C20.0005728,20.5025126 23.9201708,22.0100503 23.9201708,22.0100503 C23.9201708,22.160804 23.3171557,24.120603 21.9603718,26.2311558 C20.7543417,28.040201 19.3975577,29.8492462 17.4377587,29.8492462 C15.4779598,29.8492462 14.8749447,28.6432161 12.6136381,28.6432161 C10.3523316,28.6432161 9.59856277,29.8492462 7.78951754,29.8492462 C5.82971855,29.8492462 4.32218086,27.8894472 3.11615071,26.080402 C0.553336638,22.3115578 -1.40646236,15.5276382 1.30710548,11.0050251 C2.51313563,8.74371859 4.92519593,7.2361809 7.33725624,7.2361809 C9.29705523,7.2361809 11.1061005,8.59296482 12.1613768,8.59296482 C13.2166532,8.59296482 15.327206,7.08542714 17.7392663,7.2361809 L17.7392663,7.2361809 Z" id="Shape"></path>
                </g>
            </g>
        </g>
    </g>
</svg>