<?xml version="1.0" encoding="UTF-8"?>
<svg width="60px" height="60px" viewBox="0 0 60 60" version="1.1" xmlns="http://www.w3.org/2000/svg" xmlns:xlink="http://www.w3.org/1999/xlink">
    <title>Fill 1</title>
    <g id="Page-1" stroke="none" stroke-width="1" fill="none" fill-rule="evenodd">
        <g id="BB" transform="translate(-694.000000, -3731.000000)" fill="#FEFAB1">
            <g id="Group-5" transform="translate(588.998728, 3731.000000)">
                <path d="M122.632375,0.181743626 C119.438387,0.327149075 117.257358,0.833642085 115.350183,1.57517296 C113.377558,2.34096444 111.705422,3.36848046 110.035738,5.03573825 C108.368454,6.70299605 107.340964,8.37513235 106.575173,10.3501835 C105.833616,12.2573576 105.327149,14.4383866 105.181744,17.6323753 C105.033912,20.831216 105,21.8538535 105,30.0011998 C105,38.1485461 105.033912,39.17121 105.181744,42.3700244 C105.327149,45.5640131 105.833616,47.7450421 106.575173,49.6522426 C107.340964,51.6248413 108.366054,53.2994036 110.035738,54.9666878 C111.703022,56.6339456 113.375132,57.6590092 115.350183,58.4272267 C117.259784,59.168784 119.438387,59.6752506 122.632375,59.8206561 C125.833616,59.9660615 126.853854,60.0024261 135.0012,60.0024261 C143.150972,60.0024261 144.17121,59.9685139 147.370051,59.8206561 C150.564039,59.6752506 152.745068,59.168784 154.652243,58.4272267 C156.624868,57.6590092 158.296978,56.6339456 159.966661,54.9666878 C161.633946,53.2994036 162.659036,51.6248413 163.427227,49.6522426 C164.168784,47.7450421 164.677703,45.5640131 164.820682,42.3700244 C164.966062,39.168784 165,38.1485461 165,30.0011998 C165,21.8538535 164.966062,20.831216 164.820682,17.6323753 C164.675251,14.4383866 164.168784,12.2573576 163.427227,10.3501835 C162.659036,8.37755841 161.633946,6.70542211 159.966661,5.03573825 C158.299404,3.36848046 156.624868,2.34096444 154.654669,1.57517296 C152.745068,0.833642085 150.564039,0.324723014 147.372477,0.181743626 C144.173636,0.0363381771 143.150972,0 135.003626,0 C126.853854,0 125.833616,0.0339384862 122.632375,0.181743626 M122.87957,54.4214042 C119.954558,54.288129 118.364828,53.8010445 117.308252,53.3890624 C115.907545,52.8438052 114.909115,52.1943328 113.857391,51.1450349 C112.808067,50.0957108 112.156195,49.0973075 111.613364,47.6965736 C111.201382,46.6399976 110.714271,45.0502683 110.580996,42.1252823 C110.43559,38.9627797 110.406504,38.0128449 110.406504,30.0011998 C110.406504,21.9895548 110.438016,21.042046 110.580996,17.8771174 C110.714271,14.9521314 111.203808,13.3648282 111.613364,12.3058261 C112.158595,10.9051186 112.808067,9.90668894 113.857391,8.85493868 C114.906689,7.80564086 115.905119,7.1537424 117.308252,6.61091121 C118.364828,6.19895548 119.954558,5.71184458 122.87957,5.57856944 C126.042046,5.43316399 126.992007,5.40407763 135.0012,5.40407763 C143.012819,5.40407763 143.96038,5.43559005 147.125282,5.57856944 C150.050268,5.71184458 151.637572,6.20135517 152.6966,6.61091121 C154.097281,7.1537424 155.095737,7.80564086 156.147461,8.85493868 C157.196759,9.90426288 157.846231,10.9051186 158.391488,12.3058261 C158.803471,13.3624021 159.290581,14.9521314 159.42383,17.8771174 C159.569236,21.042046 159.598348,21.9895548 159.598348,30.0011998 C159.598348,38.0104189 159.569236,38.9603537 159.42383,42.1252823 C159.290581,45.0502683 158.801045,46.6399976 158.391488,47.6965736 C157.846231,49.0973075 157.196759,50.0957108 156.147461,51.1450349 C155.098137,52.1943328 154.097281,52.8438052 152.6966,53.3890624 C151.640024,53.8010445 150.050268,54.288129 147.125282,54.4214042 C143.962806,54.566836 143.012819,54.595896 135.0012,54.595896 C126.992007,54.595896 126.042046,54.566836 122.87957,54.4214042 M147.416093,13.9852142 C147.416093,15.9723693 149.027604,17.5863328 151.017185,17.5863328 C153.004367,17.5863328 154.618304,15.9723693 154.618304,13.9852142 C154.618304,11.9980592 153.006793,10.3865216 151.017185,10.3865216 C149.027604,10.3865216 147.416093,11.9980592 147.416093,13.9852142 M119.595896,30.0011998 C119.595896,38.5096337 126.492792,45.4065301 135.0012,45.4065301 C143.509607,45.4065301 150.406504,38.5096337 150.406504,30.0011998 C150.406504,21.4927924 143.509607,14.595896 135.0012,14.595896 C126.492792,14.595896 119.595896,21.4927924 119.595896,30.0011998 M125.0024,30.0011998 C125.0024,24.4783771 129.478377,20 135.0012,20 C140.524023,20 145.002426,24.4783771 145.002426,30.0011998 C145.002426,35.524049 140.524023,40.0024261 135.0012,40.0024261 C129.478351,40.0024261 125.0024,35.524049 125.0024,30.0011998" id="Fill-1"></path>
            </g>
        </g>
    </g>
</svg>