<?xml version="1.0" encoding="UTF-8"?>
<svg width="140px" height="65px" viewBox="0 0 140 65" version="1.1" xmlns="http://www.w3.org/2000/svg" xmlns:xlink="http://www.w3.org/1999/xlink">
    <title>Combined Shape</title>
    <g id="Page-1" stroke="none" stroke-width="1" fill="none" fill-rule="evenodd">
        <g id="BB" transform="translate(-302.000000, -2876.000000)" fill="#FEFAB1">
            <path d="M408.504196,2876.5 L408.503882,2876.52209 C408.903466,2876.50741 409.304909,2876.5 409.708082,2876.5 C427.496114,2876.5 441.916163,2890.92005 441.916163,2908.70808 C441.916163,2926.49611 427.496114,2940.91616 409.708082,2940.91616 C409.304909,2940.91616 408.903466,2940.90876 408.503882,2940.89407 L408.504196,2940.91616 L302.667557,2940.91616 L302.667557,2876.5 L408.504196,2876.5 Z M424.723991,2893.94965 L400.852668,2893.94965 L400.852668,2900.49662 L412.084082,2900.49662 C409.830771,2904.12469 407.864922,2907.28889 405.655187,2910.84737 C408.377293,2910.84737 410.546264,2910.65128 412.664629,2910.89165 C416.241392,2911.2979 417.911344,2912.87859 418.475024,2915.898 C419.030972,2918.87734 417.968275,2921.36119 415.544876,2922.7486 C412.963337,2924.22597 408.672487,2924.28431 407.067196,2922.1308 C404.952917,2919.29442 402.514438,2919.71982 399.966243,2920.05003 L399.552094,2920.10221 C399.275399,2920.13574 398.997557,2920.16603 398.71884,2920.18885 C399.172876,2925.64852 403.938144,2929.91829 410.11261,2930.59794 C417.105887,2931.36825 422.937367,2928.04943 424.92149,2922.16946 C427.361757,2914.93651 424.991774,2909.89573 416.903469,2905.30968 C419.432997,2901.63523 421.959011,2897.96709 424.723991,2893.94965 L424.723991,2893.94965 Z M389.305326,2893.70808 C387.220697,2895.91688 385.267577,2897.98667 383.328931,2900.04095 L381.390775,2902.09463 L381.390775,2902.09463 L380.417187,2903.12616 C378.786242,2901.66109 377.222595,2900.25664 375.672213,2898.86413 L373.349837,2896.77825 C372.574525,2896.08189 371.795776,2895.38243 371.006836,2894.67379 C368.46536,2897.48023 366.150901,2900.03577 363.626293,2902.82324 C365.452511,2904.52568 367.175255,2906.13159 368.879969,2907.72062 L370.922441,2909.62446 C371.604026,2910.25978 372.288195,2910.89749 372.980417,2911.5427 C369.972253,2914.7589 367.153857,2917.77339 364.159047,2920.97554 C366.980255,2923.53458 369.534383,2925.85115 372.326774,2928.38419 C375.352508,2925.15534 378.226429,2922.08743 381.146034,2918.97174 C383.038631,2920.64372 384.812136,2922.21049 386.569467,2923.7628 L388.677089,2925.62444 C389.381433,2926.24655 390.089776,2926.87215 390.808705,2927.50705 C393.360021,2924.66757 395.710325,2922.05089 398.150592,2919.3351 C394.906274,2916.30094 391.969097,2913.55423 388.799983,2910.59105 C391.725211,2907.3643 394.426233,2904.38425 397.347946,2901.16102 C394.593509,2898.6083 392.004239,2896.20879 389.305326,2893.70808 Z M361.408967,2904.40358 C360.952823,2898.40201 354.518305,2894.50264 348.446454,2896.02992 C346.29154,2896.57251 344.357319,2897.98382 342.177806,2899.07112 C338.556062,2895.62508 334.159083,2894.78519 329.502052,2897.05747 C324.756463,2899.37264 323.286821,2903.57915 323.502593,2908.64312 C323.699389,2913.26923 323.61786,2917.90728 323.687441,2922.53901 C323.709229,2923.99038 323.824495,2925.44104 323.908836,2927.12997 C325.929507,2926.97324 327.516524,2926.84954 329.420523,2926.70124 C329.420523,2925.36935 329.423685,2924.10143 329.424915,2922.86548 L329.424674,2921.03155 C329.423685,2920.42556 329.421577,2919.82358 329.417711,2919.2216 C329.392409,2915.16831 329.238486,2911.11221 329.347427,2907.06243 C329.436688,2903.73869 331.613389,2901.63719 334.536509,2901.67655 C337.423784,2901.71521 339.406501,2903.6178 339.651793,2906.73491 C339.778304,2908.34793 339.718563,2909.97641 339.720671,2911.59787 C339.726997,2916.54096 339.72278,2921.48404 339.72278,2926.50655 L339.72278,2926.50655 L345.707479,2926.50655 C345.707479,2926.31602 345.707548,2926.14124 345.70765,2925.97934 L345.707954,2924.47199 L345.707954,2924.47199 L345.707479,2924.31579 C345.703964,2923.48915 345.6985,2922.66248 345.69202,2921.83579 L345.648465,2916.87562 C345.621302,2913.56888 345.607876,2910.26237 345.66812,2906.957 C345.730672,2903.50816 347.719012,2901.59291 350.767941,2901.57394 C353.63413,2901.55637 355.670966,2903.70003 355.859328,2907.03924 C355.944371,2908.5398 355.870573,2910.04951 355.870573,2911.555 C355.870339,2913.20105 355.870183,2914.84711 355.870078,2916.49436 L355.86987,2926.40183 L361.53829,2926.40183 C361.53829,2918.90251 361.955779,2911.61685 361.408967,2904.40358 Z" id="Combined-Shape"></path>
        </g>
    </g>
</svg>