<?xml version="1.0" encoding="UTF-8"?>
<svg width="82px" height="35px" viewBox="0 0 82 35" version="1.1" xmlns="http://www.w3.org/2000/svg" xmlns:xlink="http://www.w3.org/1999/xlink">
    <title>soundcloud-logo-svgrepo-com</title>
    <g id="Page-1" stroke="none" stroke-width="1" fill="none" fill-rule="evenodd">
        <g id="BB" transform="translate(-1026.000000, -3079.000000)" fill="#FEFAB1" fill-rule="nonzero">
            <g id="soundcloud-logo-svgrepo-com" transform="translate(1026.589278, 3079.000000)">
                <path d="M3.89319359,18.1619171 C3.7209138,18.1619171 3.57995761,18.2987518 3.55770137,18.4875177 L2.76554404,25.7257419 L3.55770137,32.8032266 C3.57995761,32.9919925 3.7209138,33.1296514 3.89319359,33.1296514 C4.06300047,33.1296514 4.20065944,32.9944654 4.22786152,32.8040509 L5.12965144,25.7249176 L4.22786152,18.4866934 C4.20065944,18.2946302 4.06300047,18.1619171 3.89319359,18.1619171 Z" id="Path"></path>
                <path d="M0.913330193,20.9348799 C0.745996232,20.9348799 0.612458785,21.0634715 0.590202544,21.2505888 L0,25.7257419 L0.590202544,30.1250589 C0.61163448,30.3113519 0.745171927,30.4399435 0.913330193,30.4399435 C1.07654263,30.4399435 1.20925577,30.3113519 1.23563354,30.1267075 L1.93382007,25.7257419 L1.23563354,21.2464673 C1.20925577,21.0634715 1.07654263,20.9348799 0.913330193,20.9348799 Z" id="Path"></path>
                <path d="M7.05934998,16.7424635 C6.84667923,16.7424635 6.67687235,16.9089732 6.65544041,17.13813 L5.90284974,25.7257419 L6.65544041,33.9992935 C6.67687235,34.2292746 6.84667923,34.39496 7.05934998,34.39496 C7.2678992,34.39496 7.43770608,34.2292746 7.46243523,34.0001178 L8.31641545,25.7249176 L7.46243523,17.1373057 C7.43770608,16.9089732 7.2678992,16.7424635 7.05934998,16.7424635 Z" id="Path"></path>
                <path d="M10.2518841,16.4391192 C10.0012953,16.4391192 9.79769195,16.638601 9.77790862,16.9040273 L9.06735751,25.7282148 L9.77790862,34.2630711 C9.79769195,34.5268488 10.0012953,34.727155 10.2518841,34.727155 C10.4983514,34.727155 10.7011305,34.5268488 10.724211,34.2630711 L11.5312058,25.7282148 L10.724211,16.9023787 C10.7011305,16.638601 10.4983514,16.4391192 10.2518841,16.4391192 Z" id="Path"></path>
                <polygon id="Path" points="14.0098917 34.3347857 14.0098917 34.3347857 14.0098917 34.3364343"></polygon>
                <path d="M14.0098917,17.5395667 C13.9901083,17.2386952 13.7560057,17.0087141 13.4691474,17.0087141 C13.1781677,17.0087141 12.9457136,17.2378709 12.9275789,17.5420396 L12.2565944,25.7273905 L12.9275789,34.3339614 C12.9457136,34.6364814 13.178992,34.8664626 13.4691474,34.8664626 C13.75683,34.8664626 13.9901083,34.6364814 14.0098917,34.3339614 L14.7707254,25.7273905 L14.0098917,17.5395667 Z" id="Path"></path>
                <path d="M16.7136128,11.8106453 C16.3871879,11.8106453 16.120113,12.0760716 16.1036269,12.414861 L15.4738577,25.731512 L16.1036269,34.3372586 C16.1209374,34.6719265 16.3880122,34.9381771 16.7136128,34.9381771 C17.0367405,34.9381771 17.3038154,34.6727508 17.3235987,34.3347857 L17.3235987,34.3380829 L18.0357984,25.7323363 L17.3235987,12.414861 C17.3029911,12.0760716 17.0359162,11.8106453 16.7136128,11.8106453 Z" id="Path"></path>
                <path d="M19.9325247,8.74340556 C19.5673575,8.74340556 19.2697833,9.03850683 19.2532972,9.41521432 C19.2532972,9.41686293 18.663919,25.7776731 18.663919,25.7776731 L19.2541215,34.3298398 C19.2706076,34.7048987 19.5673575,35 19.9325247,35 C20.295219,35 20.5952661,34.7048987 20.6109279,34.3281912 L20.6109279,34.3331371 L21.2777909,25.7776731 L20.6109279,9.41521432 C20.5952661,9.03850683 20.295219,8.74340556 19.9325247,8.74340556 Z" id="Path"></path>
                <path d="M23.279204,7.26460198 C22.8744701,7.26460198 22.5455723,7.59102685 22.5315591,8.00647668 C22.5315591,8.00730099 21.9833961,25.7356335 21.9833961,25.7356335 L22.5315591,34.1995996 C22.5463966,34.6117522 22.8744701,34.9373528 23.279204,34.9373528 C23.6814649,34.9373528 24.0103627,34.6117522 24.0268488,34.1971267 L24.0268488,34.2020725 L24.645902,25.7364578 L24.0268488,8.00647668 C24.0095384,7.59102685 23.6814649,7.26460198 23.279204,7.26460198 Z" id="Path"></path>
                <path d="M27.4163919,7.410504 C27.4023787,6.95548752 27.0438059,6.59856335 26.601154,6.59856335 C26.1552049,6.59856335 25.7966321,6.95631182 25.7842675,7.410504 L25.2764955,25.7356335 L25.7850919,34.1468441 C25.7974564,34.5969147 26.1552049,34.9530146 26.601154,34.9530146 C27.0438059,34.9530146 27.403203,34.5969147 27.4163919,34.1443712 L27.9884597,25.7381065 L27.4163919,7.410504 Z" id="Path"></path>
                <polygon id="Path" points="27.4163919 34.1435469 27.4163919 34.1435469 27.4163919 34.1476684"></polygon>
                <path d="M29.9486576,7 C29.4623175,7 29.0740697,7.38659915 29.0625294,7.88035798 L28.5959727,25.7389308 L29.064178,34.0685351 C29.074894,34.5573481 29.4623175,34.9455959 29.9486576,34.9455959 C30.4317004,34.9455959 30.8199482,34.5565238 30.8331371,34.0635893 L30.8331371,34.0701837 L31.3590438,25.7372821 L30.8331371,7.87788507 C30.8199482,7.38495054 30.4317004,7 29.9486576,7 Z" id="Path"></path>
                <path d="M33.3225389,7.5827838 C32.7982807,7.5827838 32.3778851,8.00070655 32.3679934,8.53320772 L31.9418276,25.7389308 L32.3679934,34.0190768 C32.3778851,34.5466321 32.7982807,34.9629063 33.3225389,34.9629063 C33.8459727,34.9629063 34.265544,34.5466321 34.2754357,34.0133066 L34.2754357,34.0199011 L34.7535327,25.7414037 L34.2754357,8.53403203 C34.265544,8.00070655 33.8459727,7.5827838 33.3225389,7.5827838 Z" id="Path"></path>
                <path d="M37.287447,4.42074894 C37.1258832,4.31111634 36.9305228,4.24682054 36.7219736,4.24682054 C36.5191945,4.24682054 36.3304286,4.30864343 36.1713377,4.41250589 C35.8918983,4.59467734 35.704781,4.90873764 35.6998351,5.2664861 L35.6965379,5.45937353 L35.3124117,25.7356335 C35.3124117,25.7471738 35.6998351,33.9654969 35.6998351,33.9654969 C35.6998351,33.9786858 35.7014837,33.9877532 35.7023081,34.0001178 C35.7138483,34.2292746 35.8004004,34.4402967 35.939708,34.6076307 C36.1284739,34.832666 36.4095619,34.9777438 36.7219736,34.9777438 C36.9997645,34.9777438 37.2528262,34.8631653 37.4374706,34.678521 C37.6229392,34.4947009 37.7399906,34.2408149 37.7449364,33.9589025 L37.7878003,33.1461375 L38.176048,25.7405794 L37.7457607,5.2656618 C37.7391663,4.91368347 37.5578191,4.6037447 37.287447,4.42074894 Z" id="Path"></path>
                <polygon id="Path" points="37.7449364 33.9654969 37.7449364 33.963024 37.7449364 33.9663212 37.7449364 33.9621997 37.7449364 33.9589025 37.7449364 33.9589025 37.7449364 33.963024"></polygon>
                <path d="M40.6621526,2.47951013 C40.5005888,2.3805935 40.30935,2.32289213 40.1073952,2.32289213 C39.8469147,2.32289213 39.6070419,2.41686293 39.418276,2.57183231 C39.1759303,2.77213848 39.0193123,3.0738342 39.0143665,3.41179934 L39.0118935,3.52390485 L38.5667687,25.7438766 L38.794277,29.8505652 L39.0143665,33.8484456 C39.0234338,34.4394724 39.5122468,34.9291098 40.1073952,34.9291098 C40.7000707,34.9291098 41.1888837,34.4394724 41.1971267,33.8410268 L41.1971267,33.8492699 L41.1971267,33.8509185 L41.6834668,25.7447009 L41.6834668,25.7447009 L41.1987753,3.41015073 C41.1930052,3.01530853 40.9770372,2.66992463 40.6621526,2.47951013 Z" id="Path"></path>
                <path d="M70.6825247,15.172162 C69.3257183,15.172162 68.0282619,15.44748 66.8495054,15.9412388 C66.0589967,7.00824305 58.5677108,0 49.429463,0 C47.1922986,0 45.0136599,0.440178992 43.0880829,1.18452661 C42.3404381,1.47468205 42.1426048,1.77143194 42.1351861,2.35009421 C42.1351861,2.35091851 42.1351861,33.8121762 42.1351861,33.8121762 C42.1426048,34.4180405 42.6124588,34.8903674 43.2051342,34.9488931 C43.2306877,34.9521903 70.6841733,34.9488931 70.6841733,34.9488931 C76.1592087,34.9488931 80.5964437,30.560292 80.5964437,25.0844324 C80.5956194,19.6102214 76.1583844,15.172162 70.6825247,15.172162 Z" id="Path"></path>
            </g>
        </g>
    </g>
</svg>