<?xml version="1.0" encoding="UTF-8"?>
<svg width="61px" height="61px" viewBox="0 0 61 61" version="1.1" xmlns="http://www.w3.org/2000/svg" xmlns:xlink="http://www.w3.org/1999/xlink">
    <title>Shape</title>
    <g id="Page-1" stroke="none" stroke-width="1" fill="none" fill-rule="evenodd">
        <g id="BB" transform="translate(-718.000000, -3066.000000)" fill="#FEFAB1" fill-rule="nonzero">
            <g id="Group-2" transform="translate(481.082843, 3066.500000)">
                <g id="Spotify_logo_without_text" transform="translate(237.165686, 0.000000)">
                    <path d="M30.0005374,0 C13.4320498,0 0,13.4316916 0,30.0001791 C0,46.5693832 13.4320498,60 30.0005374,60 C46.5708161,60 60.001433,46.5693832 60.001433,30.0001791 C60.001433,13.4327663 46.5708161,0.00143298126 30.0001791,0.00143298126 L30.0005374,0 L30.0005374,0 Z M43.7585904,43.2688691 C43.2212225,44.1501526 42.0676725,44.4295839 41.1863891,43.8886335 C34.1425697,39.5861072 25.2752817,38.61168 14.8324308,40.9975938 C13.8261197,41.2268708 12.8230328,40.596359 12.5937558,39.5896897 C12.363404,38.5830204 12.9914081,37.5799335 14.0002269,37.3506565 C25.4282524,34.7386899 35.230919,35.8639384 43.138826,40.6966677 C44.0201095,41.2376181 44.2995408,42.3875856 43.7585904,43.2688691 L43.7585904,43.2688691 Z M47.4306049,35.0990847 C46.7535213,36.200689 45.3133751,36.548187 44.213562,35.8711033 C36.1494599,30.9133464 23.8569885,29.4778575 14.318707,32.3731961 C13.0816859,32.7468459 11.7751652,32.0497006 11.3997242,30.814829 C11.027149,29.5778079 11.7246527,28.273795 12.9595243,27.8976374 C23.854839,24.5917496 37.3997361,26.1931062 46.6603775,31.883833 C47.7601906,32.5609166 48.1076885,34.0010628 47.4306049,35.0994429 L47.4306049,35.0990847 Z M47.7458608,26.5929079 C38.0768197,20.8498773 22.1241559,20.3218237 12.8925324,23.1236603 C11.4101133,23.5732582 9.84243177,22.7363971 9.39319214,21.253978 C8.94395252,19.7708424 9.78009708,18.2042357 11.2635909,17.753563 C21.8608456,14.5365201 39.4775589,15.1580757 50.6096738,21.7666271 C51.9459288,22.557991 52.3829881,24.2800762 51.591266,25.611674 C50.8031263,26.9450631 49.0763839,27.3846301 47.7472938,26.5929079 L47.7458608,26.5929079 Z" id="Shape"></path>
                </g>
            </g>
        </g>
    </g>
</svg>