<?xml version="1.0" encoding="UTF-8"?>
<svg width="182px" height="56px" viewBox="0 0 182 56" version="1.1" xmlns="http://www.w3.org/2000/svg" xmlns:xlink="http://www.w3.org/1999/xlink">
    <title>YouTube Music logo</title>
    <g id="Page-1" stroke="none" stroke-width="1" fill="none" fill-rule="evenodd">
        <g id="BB" transform="translate(-307.000000, -3157.000000)" fill="#FEFAB1" fill-rule="nonzero">
            <g id="YouTube-Music-logo" transform="translate(307.000000, 3157.000000)">
                <path d="M28.04,0 C43.5260644,0 56.08,12.3479866 56.08,27.58 C56.08,42.8120134 43.5260644,55.16 28.04,55.16 C12.5539356,55.16 0,42.8120134 0,27.58 C0,12.3479866 12.5539356,0 28.04,0 Z M28.04,10.43 C18.4431305,10.43 10.66,18.1064488 10.66,27.58 C10.66,37.0535512 18.4431305,44.73 28.04,44.73 C37.6368695,44.73 45.42,37.0535512 45.42,27.58 C45.42,18.1064488 37.6368695,10.43 28.04,10.43 Z M28.04,11.63 C36.9778067,11.63 44.22,18.772926 44.22,27.58 C44.22,36.387074 36.9778067,43.53 28.04,43.53 C19.1021933,43.53 11.86,36.387074 11.86,27.58 C11.86,18.772926 19.1021933,11.63 28.04,11.63 Z M22.29,19.53 L22.29,35.62 L37,27.58 L22.29,19.53 Z" id="Combined-Shape"></path>
                <path d="M85.94,22.06 C84.56,28.72 83.64,36.54 83.18,39.98 L82.72,39.98 C82.26,36.53 81.34,28.72 79.96,22.29 L76.51,6.2 L66.18,6.2 L66.18,49.63 L72.61,49.63 L72.61,13.79 L73.3,17.24 L79.96,49.64 L86.39,49.64 L92.82,17.24 L93.28,13.79 L93.28,49.41 L99.71,49.41 L99.71,6.21 L89.16,6.21 C89.39,6.21 85.94,22.06 85.94,22.06 Z" id="Path"></path>
                <path d="M117.2,42.98 C116.563914,44.1869072 115.34206,44.972385 113.98,45.05 C112.6,45.05 111.91,43.9 111.91,41.14 L111.91,17.93 L104.56,17.93 L104.56,41.37 C104.56,47.11 106.63,49.87 110.99,49.87 C113.99,49.87 116.28,48.49 118.11,45.5 L118.34,45.5 L119.03,49.41 L124.77,49.41 L124.77,17.93 L117.2,17.93 L117.2,42.93 L117.2,42.98 Z" id="Path"></path>
                <path d="M138.8,30.34 C136.5,28.73 134.89,27.58 134.89,25.05 C134.781619,24.2899062 135.037323,23.5231307 135.580227,22.9802269 C136.123131,22.4373232 136.889906,22.1816192 137.65,22.29 C139.72,22.29 140.41,23.67 140.41,28.49 L146.61,28.26 C147.07,20.68 144.54,17.46 137.61,17.46 C131.41,17.46 128.19,20.22 128.19,25.73 C128.19,30.79 130.72,33.08 134.85,36.3 C138.53,39.06 140.59,40.44 140.59,42.73 C140.605625,43.5095546 140.285954,44.2583305 139.71214,44.7862391 C139.138326,45.3141477 138.365553,45.570421 137.59,45.49 C135.29,45.49 134.14,43.42 134.37,39.97 L128.17,39.97 C127.25,46.63 130.01,50.31 137.17,50.31 C143.6,50.31 146.82,47.55 146.82,41.81 C147.3,36.58 144.54,34.47 138.8,30.34 Z" id="Path"></path>
                <polygon id="Path" points="158.33 17.92 151.21 17.92 151.21 49.41 158.33 49.41"></polygon>
                <path d="M154.88,5.29 C152.12,5.29 150.97,6.21 150.97,9.66 C150.97,13.11 152.35,14.03 154.88,14.03 C157.64,14.03 158.79,13.11 158.79,9.66 C158.79,6.44 157.64,5.29 154.88,5.29 Z" id="Path"></path>
                <path d="M182,38.15 L175.57,37.92 C175.57,43.44 174.88,45.27 172.81,45.27 C170.74,45.27 170.28,43.2 170.28,36.77 L170.28,30.58 C170.28,24.15 170.74,22.31 172.81,22.31 C174.88,22.31 175.34,24.15 175.34,30.12 L181.77,29.66 C182.23,24.83 181.54,21.39 179.7,19.55 C178.32,18.17 176.02,17.48 173.04,17.48 C165.92,17.48 162.93,21.16 162.93,31.73 L162.93,36.1 C162.93,46.9 165.46,50.35 172.81,50.35 C175.81,50.35 178.1,49.66 179.47,48.28 C181.31,46.21 182,42.99 182,38.17 L182,38.15 Z" id="Path"></path>
            </g>
        </g>
    </g>
</svg>